<svg id="svg-mini-ring" xmlns="http://www.w3.org/2000/svg" viewBox="0 0 100 100" width="96" height="96">
                        <!-- Outer Boundary Ring -->
                        <circle cx="50" cy="50" r="47" fill="none" stroke="#EE0000" stroke-width="1" stroke-dasharray="2 3" opacity="0.6"></circle>

                        <!-- Soundwaves (X-Centered) -->
                        <g id="ring-wave-left" fill="#EE0000">
                            <rect class="mini-wave" x="4" y="42" width="2" height="16" rx="0.5" opacity="0.5"></rect>
                            <rect class="mini-wave" x="8" y="34" width="2" height="32" rx="0.5" opacity="0.7"></rect>
                            <rect class="mini-wave" x="12" y="26" width="2" height="48" rx="0.5" opacity="0.9"></rect>
                            <rect class="mini-wave" x="16" y="38" width="2" height="24" rx="0.5"></rect>
                            <rect class="mini-wave" x="20" y="30" width="2" height="40" rx="0.5"></rect>
                        </g>

                        <!-- Fedora Hat (Scale 0.25) -->
                        <!-- 192 * 0.25 = 48, 145 * 0.25 = 36.25 -->
                        <!-- Translate X = 50 - 24 = 26 -->
                        <!-- Translate Y = 50 - 18.1 = 31.9 -->
                        <g transform="translate(26, 31.9) scale(0.25)">
                            <!-- Shadow / Underparts (Locked Black) -->
                            <path d="M157.77,62.61a14,14,0,0,1,.31,3.42c0,14.88-18.1,17.46-30.61,17.46C78.83,83.49,42.53,53.26,42.53,44a6.43,6.43,0,0,1,.22-1.94l-3.66,9.06a18.45,18.45,0,0,0-1.51,7.33c0,18.11,41,45.48,87.74,45.48,20.69,0,36.43-7.76,36.43-21.77,0-1.08,0-1.94-1.73-10.13Z" fill="#000000"></path>
                            <!-- Hat Crown and Outer Brim (Brand Red) -->
                            <path d="M127.47,83.49c12.51,0,30.61-2.58,30.61-17.46a14,14,0,0,0-.31-3.42l-7.45-32.36c-1.72-7.12-3.23-10.35-15.73-16.6C124.89,8.69,103.76.5,97.51.5,91.69.5,90,8,83.06,8c-6.68,0-11.64-5.6-17.89-5.6-6,0-9.91,4.09-12.93,12.5,0,0-8.41,23.72-9.49,27.16A6.43,6.43,0,0,0,42.53,44c0,9.22,36.3,39.45,84.94,39.45M160,72.07c1.73,8.19,1.73,9.05,1.73,10.13,0,14-15.74,21.77-36.43,21.77C78.54,104,37.58,76.6,37.58,58.49a18.45,18.45,0,0,1,1.51-7.33C22.27,52,.5,55,.5,74.22c0,31.48,74.59,70.28,133.65,70.28,45.28,0,56.7-20.48,56.7-36.65,0-12.72-11-27.16-30.83-35.78" fill="#EE0000"></path>
                        </g>

                        <g id="ring-wave-right" fill="#EE0000">
                            <rect class="mini-wave" x="78" y="30" width="2" height="40" rx="0.5"></rect>
                            <rect class="mini-wave" x="82" y="38" width="2" height="24" rx="0.5"></rect>
                            <rect class="mini-wave" x="86" y="26" width="2" height="48" rx="0.5" opacity="0.9"></rect>
                            <rect class="mini-wave" x="90" y="34" width="2" height="32" rx="0.5" opacity="0.7"></rect>
                            <rect class="mini-wave" x="94" y="42" width="2" height="16" rx="0.5" opacity="0.5"></rect>
                        </g>
                    </svg>
